<svg width="256" height="192" viewBox="0 0 256 192" fill="none" xmlns="http://www.w3.org/2000/svg">
<path d="M82.02 183.25C104.04 183.25 125.73 183.25 148.03 183.25C148.03 179.56 147.61 176.05 148.2 172.71C148.52 170.89 150.54 169.36 151.79 167.7C153.06 169.32 155.15 170.82 155.42 172.59C155.98 176.32 155.63 180.2 155.58 184.02C155.52 188.71 152.92 190.93 148.4 191.15C147.24 191.21 146.07 191.17 144.91 191.17C100.2 191.17 55.5 191.17 10.79 191.17C1.44 191.18 0 189.77 0 180.66C0 142.79 0 104.92 0 67.0601C0 57.8201 1.16 56.6401 10.21 56.6301C22.84 56.6201 35.47 56.6101 48.1 56.5701C48.38 56.5701 48.66 56.3301 49.6 55.9001C46.89 51.8901 44.35 47.8901 41.51 44.1201C40.89 43.3001 39.22 43.0201 38.01 42.9401C35.36 42.7701 32.58 43.3501 30.07 42.7301C28.24 42.2801 26.76 40.4001 25.12 39.1501C26.79 37.9301 28.33 36.4401 30.17 35.5701C31.39 35.0001 33.03 35.3201 35.54 35.1801C31.83 29.6901 28.54 24.8401 25.26 19.9801C23.87 17.9201 22.37 15.9201 21.11 13.7701C17.48 7.60006 20.78 0.670061 27.91 0.300061C36.03 -0.119939 44.21 -0.0999392 52.32 0.390061C55.25 0.570061 58.72 1.96006 60.82 3.97006C72.5 15.1601 85.88 20.5601 102.22 18.1501C103.85 17.9101 107.22 20.1601 107.46 21.6201C108.03 25.2201 104.79 25.5101 102 25.5301C95.02 25.5701 88.03 25.7401 81.06 25.4901C78.9 25.4101 76.56 24.5101 74.69 23.3601C71.45 21.3601 68.05 19.3001 65.53 16.5201C54.73 4.54006 40.81 8.18006 26.22 7.92006C30.69 14.5501 35.12 19.9401 38.24 26.0101C42.27 33.8601 47.96 36.9601 56.54 35.5201C58.8 35.1401 61.31 35.0301 63.47 35.6301C65.16 36.1001 66.48 37.8801 67.96 39.0701C66.38 40.3401 64.91 42.4601 63.19 42.6901C59.17 43.2301 55.03 42.8601 49.97 42.8601C53.15 47.5801 55.7 51.5901 58.55 55.3801C59.16 56.2001 60.84 56.5101 62.04 56.5501C65.86 56.7001 69.68 56.5701 73.51 56.6201C79.48 56.7001 81.47 58.7101 81.63 64.7401C81.68 66.5301 81.64 68.3201 81.64 70.6401C88.87 70.6401 95.64 70.7601 102.4 70.5301C103.58 70.4901 104.94 69.1501 105.81 68.0801C109.49 63.5801 112.69 58.6501 116.73 54.5101C118.81 52.3801 122.25 50.4501 125.11 50.4101C147.21 50.0801 169.31 50.2401 191.42 50.2101C194.7 50.2101 198.06 51.0301 198.06 54.5901C198.06 56.7601 195.89 59.4401 193.96 60.9901C191.3 63.1301 187.96 64.4201 185.11 65.9701C189.72 70.9501 195.64 70.8101 201.68 70.7201C212.81 70.5501 223.95 70.7901 235.08 70.6201C243.28 70.5001 248.68 64.7801 247.61 57.8901C247.19 55.1801 246.07 53.7901 243.06 53.9101C238.58 54.1001 234.08 54.0801 229.6 53.9001C219.42 53.4901 211.88 43.8501 213.81 33.8401C214.49 30.3301 216.59 28.2701 220.22 27.9401C221.65 27.8101 223.09 27.7901 224.52 27.7201C224.57 27.2801 224.62 26.8301 224.67 26.3901C221.34 26.0201 218.02 25.3401 214.69 25.3301C185.11 25.3101 155.53 25.4301 125.95 25.4201C122.86 25.4201 118.16 26.6701 118.08 21.8401C117.99 16.5301 122.9 17.9701 126.11 17.9601C156.02 17.8601 185.94 17.9801 215.85 17.8001C225.54 17.7401 232.74 21.5201 238.05 29.5301C242.18 35.7501 246.54 41.8201 250.99 47.8201C255.4 53.7601 256.98 60.0701 253.65 66.9101C250.33 73.7201 244.66 77.6701 237.07 77.8601C224.45 78.1701 211.81 78.1101 199.18 78.0001C195.94 77.9701 194.2 78.5501 193.25 82.1501C191.93 87.1301 187.48 89.6801 181.64 89.7101C169.18 89.7701 156.71 89.6701 144.25 89.7901C142.17 89.8101 139.7 89.9601 138.09 91.0601C128.11 97.8801 117.08 99.6501 105.33 98.6901C102.52 98.4601 99.68 98.6101 96.86 98.6701C93.62 98.7401 89.71 98.8501 89.02 95.1601C88.54 92.5801 90.05 89.3401 91.42 86.7901C92.93 83.9801 95.3 81.6201 97.83 78.3801C91.91 78.3801 87.05 78.3801 81.92 78.3801C81.92 92.2101 81.92 105.76 81.92 120.07C83.99 120.07 85.91 120.07 87.83 120.07C107.27 120.07 126.72 120.05 146.16 120.08C153.95 120.09 155.6 121.74 155.61 129.38C155.63 136.69 155.61 144 155.61 151.3C155.61 154.17 155.85 157.52 151.75 157.45C147.62 157.38 148.08 153.89 148.06 151.12C148 143.49 148.04 135.87 148.04 127.91C142.15 127.91 136.59 127.91 130.36 127.91C130.36 132.89 130.43 137.81 130.34 142.73C130.22 149.64 126.36 151.94 120.74 147.9C116.45 144.82 113.22 144.82 108.94 147.87C103.26 151.91 99.52 149.69 99.42 142.74C99.35 137.81 99.41 132.87 99.41 127.75C93.32 127.75 87.88 127.75 82.04 127.75C82.02 146.16 82.02 164.48 82.02 183.25ZM73.72 127.98C67.82 127.98 62.16 127.98 56.17 127.98C56.17 133.18 56.22 137.97 56.16 142.76C56.06 149.7 52.33 151.91 46.65 147.88C42.38 144.85 39.16 144.8 34.86 147.9C29.25 151.95 25.35 149.64 25.23 142.76C25.14 137.84 25.21 132.92 25.21 127.88C19.03 127.88 13.48 127.88 7.91 127.88C7.91 146.5 7.91 164.81 7.91 183.11C30.11 183.11 51.9 183.11 73.72 183.11C73.72 164.51 73.72 146.31 73.72 127.98ZM73.64 119.88C73.64 101.1 73.64 82.7901 73.64 64.3001C67.79 64.3001 62.26 64.3001 56.16 64.3001C56.16 69.5601 56.22 74.5001 56.15 79.4301C56.05 86.1801 52.4 88.4401 46.98 84.5601C42.58 81.4201 39.25 81.1501 34.73 84.4401C29.12 88.5301 25.34 86.2101 25.23 79.1801C25.15 74.2701 25.21 69.3601 25.21 63.9601C20.4 63.9601 16.27 64.2001 12.18 63.8901C8.34 63.5901 7.41 65.1001 7.45 68.7201C7.62 84.3101 7.51 99.9101 7.54 115.5C7.54 116.92 7.8 118.33 7.95 119.88C29.99 119.88 51.54 119.88 73.64 119.88ZM97.41 91.1001C101.76 91.1001 104.87 90.8601 107.93 91.1501C117.36 92.0401 125.7 89.5301 133.93 84.8301C148.73 76.3701 163.98 68.6801 179.03 60.6401C180.24 60.0001 181.36 59.1801 183.57 57.7901C168.02 57.7901 153.72 58.6601 139.58 57.5201C127.72 56.5601 119.61 59.8301 113.48 70.2201C109.26 77.3601 103.34 83.5101 97.41 91.1001ZM155.49 82.3001C165.01 82.3001 173.13 82.5401 181.21 82.1201C183.04 82.0201 185.96 79.8401 186.27 78.2201C186.9 74.8701 183.92 74.2801 181.03 73.8801C171.66 72.5801 163.95 76.2501 155.49 82.3001ZM33.13 77.4501C38.41 71.2701 43.47 72.8101 48.42 76.6901C48.42 72.0501 48.42 68.1901 48.42 64.2301C43.16 64.2301 38.29 64.2301 33.13 64.2301C33.13 68.3201 33.13 72.1501 33.13 77.4501ZM33.26 127.7C33.26 131.97 33.26 135.78 33.26 140.8C38.58 134.89 43.55 136.41 48.39 140.19C48.39 135.54 48.39 131.66 48.39 127.7C43.2 127.7 38.41 127.7 33.26 127.7ZM122.42 140.39C122.42 135.62 122.42 131.77 122.42 127.92C117.09 127.92 112.09 127.92 107.2 127.92C107.2 132.06 107.2 135.85 107.2 140.74C112.47 135.32 117.39 135.95 122.42 140.39ZM239.16 46.4001C236.8 36.8501 231.27 33.6701 221.57 36.2801C221.41 45.0101 225.5 47.3701 239.16 46.4001Z" fill="url(#paint0_linear_1066_22)"/>
<defs>
<linearGradient id="paint0_linear_1066_22" x1="0.492893" y1="-16.8292" x2="207.405" y2="201.267" gradientUnits="userSpaceOnUse">
<stop stop-color="#D40202"/>
<stop offset="1" stop-color="#000080"/>
</linearGradient>
</defs>
</svg>
