<svg width="196" height="196" viewBox="0 0 196 196" fill="none" xmlns="http://www.w3.org/2000/svg">
<path d="M143.42 58.5C143.42 64.79 143.4 70.5 143.43 76.2C143.45 78.69 143.04 81.16 140.01 81.09C136.99 81.02 136.73 78.5 136.75 76.04C136.8 70.35 136.76 64.65 136.76 58.73C110.69 58.73 84.96 58.73 58.99 58.73C58.99 97.54 58.99 136.26 58.99 175.28C60.1 175.37 61.18 175.54 62.27 175.55C67.99 175.58 73.71 175.54 79.44 175.58C80.7 175.59 82.01 175.63 83.21 175.96C87.55 177.15 88.93 181.22 87.89 189.36C87.44 192.87 84.95 195.13 81.04 195.14C56.37 195.19 31.7 195.19 7.03999 195.14C2.69999 195.13 0.279988 192.56 0.0899877 188.23C-0.420012 177.1 1.02999 175.57 12.06 175.57C17.63 175.57 23.2 175.57 29.05 175.57C29.05 136.52 29.05 97.81 29.05 58.51C25.24 58.51 21.35 58.51 17.46 58.51C13.01 58.51 8.53999 58.76 4.11999 58.35C2.70999 58.22 1.45999 56.34 0.129988 55.26C1.40999 54.13 2.90999 51.85 3.91999 52.05C10.33 53.31 12.3 49.55 13.72 44.5C14.61 41.33 16.13 38.35 17.07 35.19C18.85 29.24 21.39 24.4 29.33 25.96C29.33 19.93 29.32 14.37 29.33 8.81001C29.36 1.15001 32.64 -1.36999 39.92 0.690014C44.32 1.93001 48.7 3.23001 53.1 4.47001C56.92 5.55001 58.78 8.06001 58.77 12.01C58.76 16.44 58.77 20.87 58.77 25.82C60.51 25.82 61.98 25.82 63.45 25.82C101.21 25.82 138.98 25.88 176.74 25.75C181.73 25.73 184.87 27.4 186.8 32.05C188.94 37.2 191.54 42.16 193.91 47.22C197.23 54.31 194.52 58.48 186.57 58.49C173.73 58.51 160.88 58.49 148.04 58.49C146.67 58.5 145.29 58.5 143.42 58.5ZM6.87999 188.32C31.8 188.32 56.47 188.32 81.3 188.32C81.3 186.2 81.3 184.36 81.3 182.4C56.37 182.4 31.67 182.4 6.87999 182.4C6.87999 184.47 6.87999 186.31 6.87999 188.32ZM68.69 32.81C57.8 32.81 46.46 32.81 35.5 32.81C41.18 38.49 46.87 44.19 52.07 49.39C57.49 43.97 63.18 38.3 68.69 32.81ZM104.04 49.34C109.54 43.8 115.2 38.09 120.49 32.76C109.94 32.76 98.62 32.76 87.48 32.76C93.17 38.47 98.8 44.1 104.04 49.34ZM172.83 32.81C162 32.81 150.65 32.81 139.72 32.81C145.38 38.45 151.07 44.12 156.3 49.32C161.7 43.93 167.37 38.26 172.83 32.81ZM78.63 35.2C73.2 40.64 67.47 46.37 62.29 51.56C72.6 51.56 83.92 51.56 95.05 51.56C89.3 45.84 83.61 40.16 78.63 35.2ZM113.49 51.56C124.79 51.56 136.1 51.56 147.29 51.56C141.5 45.79 135.79 40.11 130.37 34.7C124.91 40.16 119.22 45.84 113.49 51.56ZM24.75 33.4C22.53 39.39 20.32 45.38 18.02 51.59C26.83 51.59 35 51.59 42.93 51.59C36.96 45.62 31 39.66 24.75 33.4ZM181.6 36.53C176.32 41.8 171.15 46.97 166.56 51.54C173.11 51.54 180.72 51.54 188.71 51.54C186.11 46.04 183.69 40.94 181.6 36.53ZM36.18 62.8C36.18 71.79 36.18 79.93 36.18 88.81C41.24 84.23 45.8 80.1 50.57 75.78C45.81 71.49 41.25 67.37 36.18 62.8ZM36.14 130.1C41.26 125.45 45.84 121.29 50.57 116.99C45.67 112.59 41.12 108.5 36.14 104.03C36.14 112.96 36.14 121.1 36.14 130.1ZM36.29 145.36C36.29 154.26 36.29 162.48 36.29 171.21C41.31 166.64 45.86 162.49 50.54 158.22C45.71 153.87 41.2 149.79 36.29 145.36ZM37.51 137.65C42.32 141.98 46.86 146.07 51.85 150.56C51.85 141.64 51.85 133.52 51.85 124.74C46.88 129.2 42.4 133.24 37.51 137.65ZM51.94 83.39C46.8 88.03 42.25 92.14 37.51 96.42C42.33 100.75 46.88 104.84 51.94 109.38C51.94 100.46 51.94 92.39 51.94 83.39ZM36.15 21.75C40.7 17.75 44.79 14.16 49.33 10.17C44.49 8.81001 40.41 7.66001 36.15 6.47001C36.15 11.61 36.15 16.33 36.15 21.75ZM51.86 68.12C51.86 64.45 51.86 61.63 51.86 58.86C48.5 58.86 45.39 58.86 41.63 58.86C45.23 62.12 48.28 64.87 51.86 68.12ZM51.93 165.87C48.27 169.18 45.19 171.97 41.49 175.31C45.59 175.31 48.68 175.31 51.93 175.31C51.93 172.31 51.93 169.56 51.93 165.87ZM51.94 16.58C48.25 19.84 45.24 22.5 41.79 25.54C45.75 25.54 48.83 25.54 51.94 25.54C51.94 22.65 51.94 20.04 51.94 16.58Z" fill="url(#paint0_linear_1066_26)"/>
<path d="M123.92 104.01C123.04 99.85 125.38 95.83 121.21 92.53C119.06 90.82 121.39 87.72 125 87.69C133.9 87.62 142.79 87.66 151.69 87.67C153.34 87.67 155.02 87.53 156.63 87.79C159.18 88.2 160.75 91.17 159.01 92.48C154.77 95.68 157.07 99.79 156.28 104.02C159.62 104.02 162.52 103.94 165.4 104.04C170.31 104.2 172.52 106.5 172.59 111.43C172.64 115.37 172.81 119.32 172.53 123.24C172.33 125.98 173.44 127.03 175.88 127.73C180.02 128.92 184.09 130.36 188.16 131.81C195.05 134.27 197.44 140.48 193.72 146.78C185.19 161.2 176.51 175.54 167.88 189.91C165.74 193.47 162.59 195.2 158.39 195.18C146.19 195.13 133.99 195.13 121.79 195.18C117.59 195.2 114.44 193.48 112.3 189.92C103.67 175.56 94.99 161.22 86.46 146.8C82.75 140.53 85.15 134.26 92 131.83C95.94 130.43 99.9 129.04 103.93 127.91C106.65 127.15 107.88 125.92 107.65 122.89C107.35 118.97 107.52 115.02 107.6 111.08C107.69 106.59 109.9 104.31 114.36 104.05C115.88 103.96 117.41 104.02 118.93 104.02C120.43 104.01 121.92 104.01 123.92 104.01ZM143.42 188.55C149 188.55 154.06 188.66 159.11 188.46C160.16 188.42 161.58 187.52 162.15 186.6C169.47 174.62 176.67 162.56 184.11 150.16C170.46 145.63 157.2 141.23 143.42 136.66C143.42 141.91 143.4 146.34 143.43 150.77C143.45 153.34 143.24 156.06 139.95 155.98C136.95 155.91 136.73 153.32 136.75 150.88C136.8 146.35 136.76 141.82 136.76 136.63C122.86 141.27 109.59 145.69 96.08 150.2C103.46 162.52 110.55 174.4 117.74 186.22C118.33 187.19 119.6 188.35 120.59 188.39C125.86 188.6 131.15 188.49 136.76 188.49C136.76 181.37 136.78 174.66 136.75 167.95C136.74 165.38 136.91 162.67 140.21 162.74C143.22 162.81 143.44 165.39 143.43 167.83C143.4 174.54 143.42 181.26 143.42 188.55ZM140.3 123.28C138.23 123.71 136.31 123.92 134.52 124.51C121.27 128.89 108.04 133.36 94.79 137.74C92.46 138.51 90.7799 139.62 91.5899 142.36C92.5099 145.46 94.62 143.75 96.21 143.22C107.3 139.57 118.4 135.96 129.41 132.1C136.55 129.6 143.5 129.59 150.65 132.07C162.03 136.03 173.49 139.78 184.96 143.48C185.94 143.8 187.27 143.06 188.43 142.82C188.02 141.38 187.8 139.83 187.11 138.54C186.79 137.94 185.57 137.79 184.73 137.51C171.97 133.26 159.21 129 146.42 124.81C144.41 124.13 142.28 123.76 140.3 123.28ZM165.92 124.33C165.92 119.54 165.92 115.19 165.92 110.71C148.59 110.71 131.5 110.71 114.26 110.71C114.26 115.26 114.26 119.6 114.26 124.35C119.78 122.51 124.98 120.94 130.07 119.05C136.81 116.55 143.42 116.55 150.16 119.04C155.25 120.91 160.43 122.5 165.92 124.33ZM149.54 103.8C149.54 100.61 149.54 97.64 149.54 94.65C143.05 94.65 136.81 94.65 130.63 94.65C130.63 97.86 130.63 100.74 130.63 103.8C137.04 103.8 143.21 103.8 149.54 103.8Z" fill="url(#paint1_linear_1066_26)"/>
<path d="M169.41 159.26C169.44 164.51 165.05 169.02 159.8 169.13C154.45 169.24 149.75 164.59 149.82 159.23C149.89 154.01 154.41 149.55 159.64 149.54C164.87 149.54 169.38 154.03 169.41 159.26ZM164.14 159.44C162.07 157.91 160.75 156.22 159.81 156.41C158.55 156.67 157.58 158.37 156.48 159.46C157.53 160.46 158.51 162.13 159.66 162.26C160.74 162.38 162.01 160.87 164.14 159.44Z" fill="url(#paint2_linear_1066_26)"/>
<path d="M110.78 159.31C110.8 154.05 115.23 149.61 120.5 149.55C125.71 149.49 130.26 153.95 130.34 159.2C130.42 164.58 125.78 169.23 120.41 169.14C115.14 169.04 110.76 164.57 110.78 159.31ZM120.29 163.86C121.91 161.84 123.66 160.57 123.5 159.63C123.28 158.36 121.6 157.34 120.54 156.21C119.51 157.23 117.81 158.15 117.64 159.29C117.49 160.37 118.95 161.69 120.29 163.86Z" fill="url(#paint3_linear_1066_26)"/>
<defs>
<linearGradient id="paint0_linear_1066_26" x1="-11.3154" y1="-8.65459" x2="164.839" y2="192.665" gradientUnits="userSpaceOnUse">
<stop stop-color="#D40202"/>
<stop offset="1" stop-color="#000080"/>
</linearGradient>
<linearGradient id="paint1_linear_1066_26" x1="-1.59515" y1="-17.1599" x2="174.56" y2="184.16" gradientUnits="userSpaceOnUse">
<stop stop-color="#D40202"/>
<stop offset="1" stop-color="#000080"/>
</linearGradient>
<linearGradient id="paint2_linear_1066_26" x1="2.24711" y1="-20.5219" x2="178.402" y2="180.798" gradientUnits="userSpaceOnUse">
<stop stop-color="#D40202"/>
<stop offset="1" stop-color="#000080"/>
</linearGradient>
<linearGradient id="paint3_linear_1066_26" x1="-19.8862" y1="-1.15515" x2="156.269" y2="200.165" gradientUnits="userSpaceOnUse">
<stop stop-color="#D40202"/>
<stop offset="1" stop-color="#000080"/>
</linearGradient>
</defs>
</svg>
