<svg width="248" height="219" viewBox="0 0 248 219" fill="none" xmlns="http://www.w3.org/2000/svg">
<path d="M103.94 210C121.34 202.34 138.35 194.85 155.76 187.18C150.02 177.38 146.07 167.18 145.73 156.06C145.31 142.06 145.29 128.04 145.45 114.04C145.52 107.92 150.53 104.9 155.87 107.83C170.7 115.96 183.22 109.92 191.42 97.29C193.1 94.7 192.39 90.56 192.8 87.13C193.16 84.17 191.58 79.69 196.45 79.64C201.34 79.59 200.58 84.17 200.06 87C196.87 104.2 221.83 117.47 234.74 108.84C241.8 104.12 248.25 107.87 247.73 117.27C246.92 132.04 248.3 147.03 246.4 161.62C243.36 184.94 229.94 201.65 208.75 211.97C207.62 212.52 206.26 213.21 205.13 213.03C203.91 212.83 202.27 211.92 201.86 210.9C201.46 209.89 202.01 208.06 202.79 207.14C203.65 206.12 205.25 205.71 206.53 205.05C226.78 194.65 238.4 178.17 239.89 155.46C240.76 142.18 240.05 128.8 240.05 114.67C222.4 122.97 208.28 118.2 196.57 103.26C184.93 117.87 170.78 123.28 151.79 114.08C152.8 132.25 152.26 149.46 155.07 166.12C158.13 184.24 170.14 197.02 186.73 205.16C187.31 205.44 188.15 205.56 188.43 206.02C189.46 207.72 190.3 209.53 191.21 211.29C189.23 211.69 186.8 213.03 185.36 212.32C180.33 209.86 175.41 207.03 170.9 203.71C166.93 200.78 163.56 197.02 159.71 193.42C141.88 201.27 123.87 209.04 106.03 217.16C101.84 219.07 98.43 219.06 94.22 217.18C65.6 204.35 36.91 191.67 8.12 179.21C2.25 176.67 -0.0599979 173.07 -0.0199979 166.67C0.190002 127.21 0.150002 87.74 -0.00999792 48.28C2.08244e-06 43.94 1.28 41.62 5.35 39.88C34.91 27.2 64.4 14.35 93.86 1.42998C98.16 -0.460019 102.03 -0.480019 106.34 1.40998C135.95 14.4 165.6 27.29 195.3 40.06C198.95 41.63 200.51 43.71 200.26 47.73C199.95 52.7 200.21 57.71 200.18 62.7C200.16 65.56 200.74 69.34 196.65 69.38C192.21 69.42 192.88 65.43 192.83 62.45C192.76 58.64 192.81 54.82 192.81 50.33C187.29 52.75 182.45 54.85 177.63 56.98C154.23 67.3 130.85 77.66 107.41 87.9C104.98 88.96 103.59 89.96 103.6 93.05C103.73 131.06 103.68 169.08 103.69 207.09C103.7 207.85 103.82 208.61 103.94 210ZM96.02 209.9C96.32 209.1 96.42 208.95 96.42 208.81C96.47 170 96.53 131.19 96.5 92.38C96.5 91.28 95.97 89.54 95.18 89.17C87.23 85.44 79.17 81.94 70.51 78.09C70.51 80.51 70.51 82.1 70.51 83.68C70.51 93.02 70.54 102.36 70.5 111.7C70.47 119.51 67.2 121.71 60.19 118.66C54.14 116.03 48.2 113.14 42.07 110.72C37.32 108.85 35.53 105.73 35.63 100.7C35.86 89.27 35.75 77.83 35.64 66.4C35.63 64.98 35.15 62.72 34.22 62.28C25.59 58.2 16.8 54.43 7.78 50.45C7.58 51.8 7.41 52.43 7.41 53.05C7.39 91.22 7.41 129.39 7.33 167.56C7.32 170.38 8.68 171.42 10.97 172.41C24.25 178.16 37.48 184.04 50.72 189.88C65.71 196.51 80.7 203.13 96.02 209.9ZM75.53 72.32C83.48 75.83 90.92 79.25 98.49 82.33C99.82 82.87 101.91 82.3 103.38 81.66C130.06 70 156.7 58.25 183.33 46.5C184.37 46.04 185.3 45.33 186.8 44.42C177.39 40.33 168.64 36.68 160.04 32.69C157.24 31.39 155.12 31.6 152.45 32.97C128.26 45.37 104 57.64 79.76 69.96C78.49 70.6 77.26 71.35 75.53 72.32ZM12.87 44.69C21.29 48.41 28.52 51.48 35.63 54.81C38.21 56.02 40.21 55.88 42.77 54.56C66.94 42.14 91.2 29.88 115.42 17.56C116.64 16.94 117.8 16.17 119.47 15.18C113.89 12.73 109 10.24 103.86 8.47998C101.57 7.69998 98.46 7.62998 96.26 8.53998C81.42 14.71 66.71 21.22 51.97 27.63C39.32 33.13 26.69 38.66 12.87 44.69ZM47.81 60.06C53.36 62.54 57.95 64.37 62.34 66.61C65.37 68.16 67.84 67.96 70.87 66.4C94.72 54.14 118.65 42.05 142.56 29.9C143.91 29.21 145.18 28.38 147.17 27.22C141.06 24.54 135.71 22.06 130.24 19.89C129.11 19.44 127.35 19.75 126.2 20.33C100.39 33.34 74.63 46.44 47.81 60.06ZM42.83 65.92C42.83 78.04 42.79 89.3 42.9 100.56C42.91 101.62 43.63 103.23 44.47 103.63C50.36 106.45 56.38 109.01 63.05 111.97C63.05 99.58 63.09 88.04 62.97 76.5C62.96 75.65 62.03 74.42 61.21 74.04C55.4 71.36 49.51 68.85 42.83 65.92Z" fill="url(#paint0_linear_1066_33)"/>
<path d="M189.03 164.21C196.75 156.86 204.4 149.57 212.04 142.27C213.2 141.16 214.12 139.53 215.49 138.97C217.13 138.31 219.14 138.55 220.99 138.4C220.84 140.25 221.39 142.69 220.41 143.85C216.79 148.13 212.66 151.99 208.73 156.01C203.67 161.17 198.54 166.27 193.59 171.53C190.84 174.45 188.42 174.91 185.56 171.7C182.46 168.23 178.9 165.13 176.07 161.47C175.05 160.15 175.56 157.65 175.37 155.69C177.33 156.01 179.74 155.74 181.16 156.79C184.18 159.03 186.71 161.97 189.03 164.21Z" fill="url(#paint1_linear_1066_33)"/>
<defs>
<linearGradient id="paint0_linear_1066_33" x1="-29.5049" y1="-5.18712" x2="219.349" y2="212.909" gradientUnits="userSpaceOnUse">
<stop stop-color="#D40202"/>
<stop offset="1" stop-color="#000080"/>
</linearGradient>
<linearGradient id="paint1_linear_1066_33" x1="-7.83893" y1="-29.9086" x2="241.015" y2="188.188" gradientUnits="userSpaceOnUse">
<stop stop-color="#D40202"/>
<stop offset="1" stop-color="#000080"/>
</linearGradient>
</defs>
</svg>
