<svg width="218" height="151" viewBox="0 0 218 151" fill="none" xmlns="http://www.w3.org/2000/svg">
<path d="M143.2 26.72C153.32 26.72 162.91 26.72 172.5 26.72C176.65 26.72 180.81 26.78 184.96 26.71C191.42 26.59 196.14 29.42 199.12 35.08C204.45 45.2 209.88 55.29 214.89 65.57C216.29 68.43 216.93 71.92 216.99 75.14C217.22 88.42 217.12 101.7 217.07 114.99C217.03 126.13 211.42 131.77 200.13 131.77C196.78 131.77 194.93 132.34 193.73 136.06C190.78 145.19 182.25 150.85 172.81 150.85C163.4 150.85 154.78 145.15 151.89 136.05C150.69 132.27 148.82 131.76 145.49 131.78C125.39 131.89 105.28 131.89 85.18 131.78C82.01 131.76 80.26 132.31 79.11 135.81C76.02 145.23 67.48 150.95 57.85 150.84C48.39 150.73 39.98 145.01 37.07 135.83C35.94 132.27 34.2 131.68 31.02 131.78C25.21 131.96 19.39 131.96 13.58 131.79C5.32 131.55 0.119999 126.54 0.0899986 118.32C-0.0200014 83.95 -0.0300014 49.58 0.0899986 15.21C0.119999 5.92997 6.25 0.0699698 15.62 0.0499698C53 -0.0200302 90.39 -0.0200302 127.77 0.0599698C137.11 0.0799698 142.89 5.94997 143.19 15.35C143.3 18.95 143.2 22.57 143.2 26.72ZM136.39 90.42C136.39 65.63 136.4 41.42 136.38 17.22C136.37 9.33997 133.87 6.87997 125.92 6.87997C89.72 6.86997 53.53 6.86997 17.33 6.87997C9.36 6.86997 6.9 9.30997 6.9 17.2C6.88 40.1 6.89 63 6.9 85.9C6.9 87.34 7.06 88.78 7.16 90.42C50.24 90.42 93.01 90.42 136.39 90.42ZM143.49 125.09C147 124.81 150.09 126.54 151.58 121.75C154.66 111.87 163.05 106.1 172.89 106.12C182.72 106.14 190.63 112 194.27 121.83C194.69 122.97 195.31 124.51 196.25 124.92C202.96 127.84 210.12 123.05 210.22 115.67C210.3 109.53 209.68 103.32 210.34 97.25C212.3 79.22 207.64 63.21 198.32 47.73C188.71 31.77 192.97 33.71 174.46 33.57C164.22 33.49 153.97 33.56 143.5 33.56C143.49 64.29 143.49 94.42 143.49 125.09ZM6.89 97.74C6.89 104.78 6.82 111.25 6.91 117.71C6.99 122.79 9.09 124.96 14.23 125.1C20.04 125.26 25.86 124.99 31.66 125.21C34.63 125.32 35.92 124.37 36.89 121.45C40.05 111.97 48.27 106.2 57.95 106.13C67.62 106.06 76.12 111.76 79.17 121.18C80.31 124.72 82.07 125.22 85.23 125.2C100.51 125.08 115.79 125.15 131.06 125.13C132.68 125.13 134.29 124.98 136.07 124.89C136.07 115.64 136.07 106.79 136.07 97.74C93 97.74 50.23 97.74 6.89 97.74ZM42.57 128.24C42.47 136.84 49.21 143.89 57.75 144.11C66.39 144.34 73.69 137.16 73.68 128.43C73.67 119.9 66.73 112.89 58.2 112.8C49.73 112.72 42.66 119.7 42.57 128.24ZM188.38 128.75C188.49 120 181.36 112.75 172.71 112.81C164.22 112.87 157.31 119.87 157.29 128.44C157.27 137 164.16 144.03 172.66 144.12C181.13 144.22 188.27 137.23 188.38 128.75Z" fill="url(#paint0_linear_1044_3)"/>
<path d="M178.36 77C171.72 77 165.09 77.1 158.45 76.97C152.72 76.85 150.27 74.4 150.17 68.73C150.05 62.1 150.06 55.47 150.17 48.84C150.26 43.14 152.74 40.63 158.36 40.55C165.99 40.45 173.65 40.14 181.24 40.74C183.87 40.95 187.32 42.98 188.65 45.22C193.55 53.46 197.79 62.11 202.14 70.67C204.29 74.9 203.08 76.88 198.27 76.98C191.64 77.1 185 77 178.36 77ZM156.84 47.3C156.84 54.43 156.69 61.01 157 67.57C157.05 68.54 159.23 70.14 160.49 70.2C166.27 70.48 172.07 70.33 177.86 70.33C183.04 70.33 188.23 70.33 194.3 70.33C190.28 62.6 186.84 55.87 183.25 49.21C182.79 48.35 181.54 47.39 180.64 47.38C172.9 47.24 165.16 47.3 156.84 47.3Z" fill="url(#paint1_linear_1044_3)"/>
<path d="M163.69 85.2C166.1 87.63 168.87 89.16 168.82 90.61C168.7 94.65 164.96 94.06 162.41 93.64C160.6 93.34 159.01 91.65 157.33 90.57C159.15 89.03 160.97 87.5 163.69 85.2Z" fill="url(#paint2_linear_1044_3)"/>
<defs>
<linearGradient id="paint0_linear_1044_3" x1="-21.8904" y1="6.91417" x2="214.864" y2="147.793" gradientUnits="userSpaceOnUse">
<stop stop-color="#D40202"/>
<stop offset="1" stop-color="#000080"/>
</linearGradient>
<linearGradient id="paint1_linear_1044_3" x1="5.2348" y1="-38.6713" x2="241.989" y2="102.207" gradientUnits="userSpaceOnUse">
<stop stop-color="#D40202"/>
<stop offset="1" stop-color="#000080"/>
</linearGradient>
<linearGradient id="paint2_linear_1044_3" x1="-9.86177" y1="-13.3009" x2="226.893" y2="127.578" gradientUnits="userSpaceOnUse">
<stop stop-color="#D40202"/>
<stop offset="1" stop-color="#000080"/>
</linearGradient>
</defs>
</svg>
