<svg width="247" height="206" viewBox="0 0 247 206" fill="none" xmlns="http://www.w3.org/2000/svg">
<path d="M239.03 88.2C239.77 88.24 240.58 88.29 241.38 88.34C246.19 88.66 246.97 89.72 245.24 94.27C240.58 106.51 235.8 118.72 231.09 130.94C229.01 136.35 226.96 141.77 224.68 147.74C226.61 147.63 228.28 147.11 229.63 147.57C231.1 148.07 232.25 149.47 233.55 150.48C232.43 151.46 231.38 153.2 230.19 153.3C224.34 153.77 219.99 156.76 215.79 160.48C204.13 170.81 192.31 170.84 180.58 160.66C176.51 157.13 172.45 153.82 166.73 153.5C160.43 153.15 155.54 155.91 151.2 160.12C144.12 166.96 135.76 170.26 126.18 166.97C121.79 165.46 117.76 162.41 114.11 159.39C104.72 151.62 96.07 151.24 87 159.45C79.48 166.25 71.29 170.33 61.19 167.02C57.23 165.72 53.47 163.17 50.24 160.44C39.17 151.11 31.7 151.3 20.32 160.47C16.11 163.87 10.63 165.85 5.47002 167.81C4.17002 168.3 1.88002 166.22 0.0500183 165.33C1.57002 164.24 3.00002 162.98 4.64002 162.12C5.77002 161.53 7.20002 161.5 8.49002 161.22C12.17 160.43 13.06 158.43 12.12 154.72C8.61002 140.89 5.39002 126.99 2.07002 113.12C0.560018 106.82 0.970018 106.32 7.61002 106.3C10.26 106.29 12.91 106.3 16.33 106.3C16.33 103.04 16.33 99.96 16.33 96.89C16.33 88.25 16.33 79.61 16.33 70.97C16.33 62.43 16.33 62.44 25.12 62.43C28.94 62.43 32.76 62.41 36.59 62.39C36.91 62.39 37.23 62.27 38.28 62.05C38.28 58.97 38.28 55.72 38.28 52.48C38.28 42.84 38.38 33.21 38.23 23.57C38.17 19.98 39.38 18.51 43.11 18.52C71.03 18.61 98.95 18.62 126.87 18.51C130.78 18.5 132.15 19.92 132.1 23.78C131.95 36.4 132.04 49.02 132.04 62.43C135.61 62.43 139.02 62.41 142.42 62.43C155.54 62.52 153.91 60.9 153.97 74.23C154.02 84.68 153.98 95.13 153.98 106.27C158.64 106.27 163.06 106.41 167.46 106.17C168.53 106.11 169.71 104.94 170.51 104C173.43 100.59 176.32 97.15 179 93.57C181.6 90.1 184.15 86.81 189.25 88.66C189.82 83.48 189.52 78.48 191.07 74.14C193.09 68.48 199.18 70.35 204.27 69.54C204.27 57.58 204.3 45.84 204.21 34.1C204.2 33.26 203.62 32.04 202.93 31.65C192.43 25.72 181.87 19.9 170.74 13.72C170.74 22 170.74 29.4 170.74 36.78C177.77 38.56 180.25 46.83 175 52.03C171.59 55.4 169.36 57.56 174.63 61.38C177.61 63.54 177.68 67.53 175.81 70.98C173.96 74.4 171.01 75.93 167.14 75.56C163.23 75.18 160.53 73.01 159.77 69.25C159.47 67.74 160.71 65.92 161.25 64.24C162.55 65.12 163.87 65.97 165.15 66.87C166.36 67.71 167.46 68.76 168.77 69.35C169.09 69.49 170.75 67.79 170.63 67.57C169.93 66.3 168.95 65.17 167.94 64.1C167.08 63.19 165.14 62.33 165.23 61.65C165.82 56.91 162.69 54.24 160.27 50.91C156.72 46.03 159.01 38.44 164.81 36.61C164.37 27.47 164.17 18.08 163.38 8.73003C162.9 3.00003 167.38 -1.27997 172.94 0.370032C183.26 3.43003 193.57 6.51003 204.05 9.63003C204.4 8.81003 204.63 8.22003 204.9 7.65003C207.27 2.51003 211.05 0.400032 215.99 1.48003C220.53 2.47003 223.18 5.84003 223.25 11.43C223.38 22.23 223.3 33.03 223.3 43.83C223.3 52.27 223.3 60.71 223.3 67.96C228.39 70.06 234.1 70.7 236.42 73.84C238.92 77.19 238.23 82.91 239.03 88.2ZM18.09 154.2C32.18 144.69 41.62 145.24 53.85 155.72C54.35 156.15 54.86 156.59 55.37 157.01C63.62 163.93 72.28 163.91 80.58 156.96C82.74 155.15 84.8 153.18 87.11 151.58C95.3 145.9 106.09 146.02 114.19 151.86C116.61 153.6 118.77 155.69 121.08 157.59C128.48 163.65 137.38 163.69 144.78 157.69C146.46 156.33 148.01 154.82 149.68 153.45C159.62 145.36 171.59 145.41 181.54 153.57C183.59 155.26 185.5 157.13 187.65 158.69C193.86 163.21 201.68 162.96 208.21 159.05C218.02 153.18 219.83 143.02 223.67 133.22C221.04 133.22 219.22 133.22 217.4 133.22C170.38 133.22 123.35 133.22 76.33 133.22C74.84 133.22 73.21 133.54 71.88 133.07C70.72 132.65 69.88 131.31 68.9 130.38C69.94 129.34 70.81 127.95 72.07 127.36C73.16 126.85 74.68 127.23 76.01 127.23C123.2 127.23 170.39 127.23 217.58 127.23C226.1 127.23 226.11 127.23 229.28 119.07C232.42 110.98 235.53 102.88 238.82 94.35C226.58 94.35 215.02 95.32 203.69 94.1C190.7 92.7 181.28 96.41 175.05 107.93C173.09 111.55 169.99 112.4 165.93 112.39C115.42 112.26 64.9 112.3 14.39 112.3C12.43 112.3 10.48 112.3 8.00002 112.3C9.30002 117.62 10.47 122.36 11.66 127.24C24.72 127.24 37.34 127.13 49.95 127.38C51.49 127.41 52.99 129.38 54.52 130.44C53.03 131.37 51.56 133.06 50.04 133.11C41.24 133.37 32.43 133.24 23.62 133.24C20.24 133.24 16.86 133.24 13.04 133.24C14.81 140.61 16.39 147.16 18.09 154.2ZM125.71 62.33C125.71 49.55 125.71 37.22 125.71 24.56C123.77 24.56 122.14 24.56 120.51 24.56C118.76 24.56 117.01 24.56 115.07 24.56C115.07 26.93 115.11 28.58 115.06 30.23C114.94 35.02 113.86 35.63 109.34 34.39C107.65 33.92 105.55 34.21 103.82 34.74C100.79 35.66 99.31 34.69 99.13 31.67C99 29.42 99.1 27.16 99.1 24.92C95.11 24.92 91.74 24.92 88.54 24.92C88.54 37.62 88.54 49.94 88.54 62.32C101.05 62.33 113.15 62.33 125.71 62.33ZM66.46 105.93C79.15 105.93 91.5 105.93 103.84 105.93C103.84 93.34 103.84 81.11 103.84 68.74C100.2 68.74 96.83 68.74 93.11 68.74C93.11 71.34 93.28 73.66 93.07 75.94C92.82 78.61 91.4 79.49 88.58 78.86C86.37 78.37 83.88 78.33 81.68 78.84C78.84 79.5 77.44 78.68 77.23 75.95C77.04 73.55 77.19 71.12 77.19 68.66C73.22 68.66 69.97 68.66 66.46 68.66C66.46 81.11 66.46 93.33 66.46 105.93ZM147.84 68.78C143.98 68.78 140.61 68.78 137.16 68.78C137.1 69.95 137.04 70.77 137.02 71.59C137 72.59 137.05 73.58 137.01 74.58C136.83 79.02 135.72 79.64 131.45 78.39C129.9 77.93 127.91 77.96 126.41 78.52C123.04 79.77 121.22 79.04 121.07 75.33C120.98 73.1 121.05 70.86 121.05 68.71C117.01 68.71 113.75 68.71 110.44 68.71C110.44 81.33 110.44 93.67 110.44 105.89C123.13 105.89 135.48 105.89 147.85 105.89C147.84 93.37 147.84 81.27 147.84 68.78ZM71.19 24.77C71.19 26.81 71.21 28.3 71.19 29.79C71.09 35.13 70.19 35.62 64.91 34.18C63.36 33.76 61.41 34.17 59.82 34.71C56.56 35.81 55.04 34.63 54.76 31.44C54.57 29.22 54.54 26.98 54.45 24.87C50.74 24.87 47.67 24.87 44.65 24.87C44.65 37.53 44.65 49.87 44.65 62.15C57.26 62.15 69.48 62.15 81.82 62.15C81.82 49.54 81.82 37.2 81.82 24.76C78.23 24.77 74.97 24.77 71.19 24.77ZM22.57 106C35.15 106 47.48 106 59.87 106C59.87 93.37 59.87 81.04 59.87 68.81C56.15 68.81 52.78 68.81 49.25 68.81C49.25 70.02 49.25 70.85 49.25 71.67C49.25 72.66 49.29 73.66 49.24 74.65C49.02 78.9 47.69 79.64 43.53 78.41C41.97 77.95 39.98 77.88 38.5 78.45C34.92 79.84 33.02 79.02 32.8 75.11C32.69 73.02 32.78 70.92 32.78 68.8C28.94 68.8 25.73 68.8 22.57 68.8C22.57 81.4 22.57 93.6 22.57 106ZM232.23 88.15C232.23 85.55 232.06 83.4 232.27 81.28C232.68 77.21 231.11 75.68 226.94 75.85C220.17 76.13 213.38 75.82 206.6 75.95C194.47 76.18 195.81 73.59 195.99 87.14C195.99 87.42 196.28 87.69 196.53 88.15C208.11 88.15 219.79 88.15 232.23 88.15ZM217.24 69.54C217.24 49.82 217.24 30.73 217.23 11.64C217.23 11.15 217.31 10.46 217.03 10.19C215.95 9.16003 214.81 7.68003 213.54 7.52003C212.66 7.41003 211.13 9.00003 210.64 10.15C210.09 11.44 210.33 13.08 210.33 14.57C210.32 31.01 210.31 47.45 210.33 63.9C210.33 65.68 210.48 67.46 210.57 69.54C212.84 69.54 214.72 69.54 217.24 69.54ZM203.19 24.77C203.75 24.47 204.32 24.18 204.88 23.88C204.12 21.11 204.06 16.45 202.5 15.87C192.54 12.2 182.25 9.44003 172.07 6.38003C171.94 6.71003 171.82 7.04003 171.69 7.37003C182.19 13.17 192.69 18.97 203.19 24.77ZM172.19 43.78C168.88 43.78 167 43.78 164 43.78C165.4 46.52 166.45 48.58 167.51 50.64C168.01 50.6 168.51 50.56 169.01 50.53C169.95 48.53 170.89 46.53 172.19 43.78Z" fill="url(#paint0_linear_1066_3)"/>
<path d="M35.88 165.03C40.5 167.02 45.26 168.76 49.7 171.08C52.14 172.36 54.03 174.67 56.23 176.44C63.44 182.25 72.27 182.26 79.53 176.46C81.22 175.11 82.8 173.63 84.46 172.25C94.33 164.04 106.32 164 116.32 172.13C117.35 172.97 118.32 173.88 119.33 174.75C128.68 182.87 137.56 183.01 146.78 174.56C154.15 167.81 162.31 164 172.17 167.23C176.27 168.57 180.13 171.3 183.5 174.11C194.18 183 202.14 183.18 212.53 174C217.11 169.95 222.02 166.54 228.31 166.35C230.03 166.3 231.79 167.93 233.53 168.78C232.04 169.92 230.65 171.87 229.05 172.05C223.16 172.74 219.04 176.21 214.96 179.91C208.49 185.78 200.9 188.47 192.45 185.93C188.17 184.64 184 182.06 180.53 179.16C169.29 169.75 161.89 169.57 150.7 179.18C138.7 189.48 127.19 189.42 115.08 179.01C104.19 169.64 96.54 169.67 85.71 179.11C73.98 189.35 62.16 189.45 50.45 179.42C38.88 169.51 31.75 169.45 20.38 179.39C15.89 183.32 11 186.43 4.92001 186.58C3.31001 186.62 1.65001 184.85 0.0100098 183.91C1.39001 182.85 2.69001 181.05 4.17001 180.88C9.84001 180.23 14 177.15 17.94 173.47C22.86 168.9 28.5 166.01 35.88 165.03Z" fill="url(#paint1_linear_1066_3)"/>
<path d="M35.93 183.66C40.66 185.75 45.52 187.6 50.08 190.02C52.52 191.31 54.38 193.65 56.6 195.38C63.67 200.88 72.56 200.78 79.52 195.16C81.71 193.39 83.76 191.42 86 189.72C94.65 183.16 105.99 183.09 114.71 189.57C117.1 191.35 119.26 193.45 121.6 195.3C128.62 200.85 137.46 200.81 144.5 195.22C146.84 193.36 148.99 191.26 151.39 189.49C159.92 183.18 171.18 183.2 179.7 189.51C181.7 190.99 183.53 192.69 185.44 194.29C193.64 201.21 202.48 201.31 210.64 194.33C215.72 189.99 220.63 185.31 227.78 185.15C229.68 185.11 231.61 186.62 233.53 187.43C231.89 188.62 230.35 189.99 228.6 190.97C224.49 193.27 220.3 195.4 216.12 197.57C211.21 200.12 206.53 203.64 201.3 204.92C193.15 206.92 186.34 203.05 179.98 197.79C176.32 194.77 171.67 192.36 167.09 191.19C161 189.64 156.17 193.34 151.41 197.04C147.32 200.22 142.71 203.4 137.82 204.74C130.28 206.82 123.02 204.72 117 199.35C115.76 198.24 114.52 197.14 113.25 196.07C104.71 188.9 96.06 188.92 87.65 196.11C85.88 197.62 84.17 199.21 82.31 200.6C73.5 207.19 61.92 207.09 53.19 200.35C51.22 198.83 49.41 197.11 47.49 195.53C39.64 189.05 30.88 189.08 23.06 195.75C17.86 200.18 12.87 205.08 5.48001 205.09C3.66001 205.09 1.83001 203.47 0.0100098 202.59C1.55001 201.48 3.00001 200.2 4.66001 199.28C8.91001 196.93 13.65 195.26 17.47 192.36C22.89 188.23 28.21 184.53 35.41 184.99C35.57 184.54 35.75 184.1 35.93 183.66Z" fill="url(#paint2_linear_1066_3)"/>
<path d="M147.29 116.75C155.24 116.75 163.19 116.57 171.13 116.89C172.91 116.96 174.62 118.81 176.36 119.84C174.73 120.81 173.1 122.61 171.45 122.63C155.23 122.84 139 122.84 122.78 122.63C121.12 122.61 118.23 121.02 118.07 119.88C117.62 116.51 120.67 116.78 122.95 116.76C131.07 116.72 139.18 116.75 147.29 116.75Z" fill="url(#paint3_linear_1066_3)"/>
<path d="M194.6 122.69C191.45 122.69 188.27 122.97 185.18 122.54C184.02 122.38 183.08 120.57 182.04 119.52C183.07 118.62 184.08 116.99 185.15 116.95C191.44 116.72 197.74 116.73 204.02 116.99C205.01 117.03 206.66 118.78 206.66 119.75C206.66 120.71 205.07 122.39 204.02 122.52C200.92 122.89 197.74 122.65 194.6 122.65C194.6 122.67 194.6 122.68 194.6 122.69Z" fill="url(#paint4_linear_1066_3)"/>
<path d="M216.88 124.05C215.1 122.2 213.93 120.98 212.76 119.76C214.33 118.76 215.87 117.04 217.47 117C218.77 116.96 220.13 118.92 221.46 120C220.17 121.14 218.88 122.29 216.88 124.05Z" fill="url(#paint5_linear_1066_3)"/>
<path d="M107.12 54.93C103.81 54.93 100.47 55.19 97.2 54.81C95.94 54.66 94.85 53.09 93.68 52.16C94.88 51.1 96.04 49.18 97.29 49.13C103.9 48.83 110.54 48.86 117.15 49.14C118.28 49.19 119.33 51.01 120.42 52.01C119.3 52.98 118.26 54.65 117.05 54.79C113.78 55.19 110.44 54.93 107.12 54.93Z" fill="url(#paint6_linear_1066_3)"/>
<path d="M106.73 45.95C103.59 45.95 100.42 46.22 97.33 45.81C96.11 45.65 95.1 43.99 93.99 43.01C95.08 42.02 96.14 40.22 97.28 40.17C103.88 39.89 110.5 39.89 117.09 40.16C118.23 40.21 119.31 41.99 120.42 42.97C119.33 43.96 118.32 45.68 117.13 45.81C113.7 46.2 110.2 45.95 106.73 45.95Z" fill="url(#paint7_linear_1066_3)"/>
<path d="M84.7 98.78C81.39 98.78 78.05 99.05 74.79 98.64C73.63 98.49 72.69 96.69 71.65 95.64C72.66 94.72 73.65 93.05 74.68 93.02C81.62 92.8 88.57 92.81 95.51 93.06C96.5 93.1 97.42 94.84 98.38 95.79C97.29 96.79 96.29 98.51 95.11 98.65C91.67 99.03 88.17 98.78 84.7 98.78Z" fill="url(#paint8_linear_1066_3)"/>
<path d="M85.24 83.91C88.54 83.92 91.87 83.65 95.12 84.05C96.3 84.2 97.3 85.91 98.38 86.91C97.27 87.88 96.19 89.64 95.03 89.69C88.44 89.96 81.84 89.95 75.25 89.68C74.13 89.63 73.08 87.82 72.01 86.82C73.12 85.85 74.15 84.19 75.36 84.05C78.61 83.65 81.94 83.9 85.24 83.91Z" fill="url(#paint9_linear_1066_3)"/>
<path d="M129.2 92.8801C132.51 92.8701 135.86 92.6101 139.12 93.0101C140.33 93.1601 141.35 94.8601 142.46 95.8501C141.34 96.8301 140.25 98.6101 139.09 98.6601C132.31 98.9201 125.51 98.8901 118.73 98.6501C117.7 98.6101 116.72 96.9601 115.71 96.0501C116.73 94.9901 117.66 93.1601 118.78 93.0301C122.21 92.6301 125.72 92.8801 129.2 92.8801Z" fill="url(#paint10_linear_1066_3)"/>
<path d="M129.59 83.87C132.57 83.87 135.59 83.57 138.5 84C139.92 84.21 141.14 85.79 142.44 86.75C141.21 87.78 140.02 89.64 138.74 89.71C132.47 90.02 126.18 90.02 119.91 89.72C118.56 89.66 117.3 87.94 115.99 86.98C117.38 85.94 118.67 84.24 120.19 84.01C123.26 83.54 126.45 83.86 129.59 83.87Z" fill="url(#paint11_linear_1066_3)"/>
<path d="M62.77 54.94C59.63 54.94 56.44 55.25 53.36 54.8C51.99 54.6 50.85 52.87 49.6 51.84C50.76 50.89 51.89 49.17 53.09 49.12C59.7 48.85 66.33 48.85 72.94 49.12C74.11 49.17 75.22 50.89 76.36 51.83C75.14 52.86 74.02 54.61 72.69 54.79C69.43 55.23 66.08 54.94 62.77 54.94Z" fill="url(#paint12_linear_1066_3)"/>
<path d="M63.17 45.94C59.87 45.94 56.54 46.2 53.29 45.8C52.1 45.65 51.09 43.96 50 42.97C51.1 41.99 52.17 40.21 53.32 40.17C59.91 39.9 66.51 39.9 73.1 40.17C74.23 40.22 75.29 42.02 76.38 43.01C75.28 43.99 74.26 45.66 73.05 45.81C69.8 46.2 66.47 45.94 63.17 45.94Z" fill="url(#paint13_linear_1066_3)"/>
<path d="M41.19 92.86C44.34 92.86 47.52 92.56 50.61 93C51.97 93.19 53.12 94.89 54.37 95.9C53.25 96.87 52.16 98.62 51 98.67C44.39 98.94 37.76 98.94 31.14 98.68C29.92 98.63 28.77 96.95 27.59 96.02C28.81 94.97 29.94 93.19 31.28 93C34.53 92.56 37.88 92.86 41.19 92.86Z" fill="url(#paint14_linear_1066_3)"/>
<path d="M41.26 83.88C44.39 83.88 47.57 83.58 50.64 84.02C51.99 84.21 53.13 85.91 54.37 86.93C53.25 87.89 52.16 89.64 51.01 89.69C44.42 89.95 37.81 89.95 31.23 89.67C30.11 89.62 29.07 87.8 28 86.79C29.12 85.83 30.16 84.18 31.38 84.04C34.63 83.65 37.96 83.91 41.26 83.91C41.26 83.89 41.26 83.89 41.26 83.88Z" fill="url(#paint15_linear_1066_3)"/>
<defs>
<linearGradient id="paint0_linear_1066_3" x1="14.2284" y1="-2.55207" x2="254.694" y2="215.545" gradientUnits="userSpaceOnUse">
<stop stop-color="#D40202"/>
<stop offset="1" stop-color="#000080"/>
</linearGradient>
<linearGradient id="paint1_linear_1066_3" x1="-28.5159" y1="44.5763" x2="211.95" y2="262.673" gradientUnits="userSpaceOnUse">
<stop stop-color="#D40202"/>
<stop offset="1" stop-color="#000080"/>
</linearGradient>
<linearGradient id="paint2_linear_1066_3" x1="-37.8017" y1="54.8145" x2="202.664" y2="272.911" gradientUnits="userSpaceOnUse">
<stop stop-color="#D40202"/>
<stop offset="1" stop-color="#000080"/>
</linearGradient>
<linearGradient id="paint3_linear_1066_3" x1="13.2332" y1="-1.45473" x2="253.699" y2="216.642" gradientUnits="userSpaceOnUse">
<stop stop-color="#D40202"/>
<stop offset="1" stop-color="#000080"/>
</linearGradient>
<linearGradient id="paint4_linear_1066_3" x1="34.8014" y1="-25.2353" x2="275.267" y2="192.861" gradientUnits="userSpaceOnUse">
<stop stop-color="#D40202"/>
<stop offset="1" stop-color="#000080"/>
</linearGradient>
<linearGradient id="paint5_linear_1066_3" x1="44.7578" y1="-36.213" x2="285.223" y2="181.884" gradientUnits="userSpaceOnUse">
<stop stop-color="#D40202"/>
<stop offset="1" stop-color="#000080"/>
</linearGradient>
<linearGradient id="paint6_linear_1066_3" x1="29.0114" y1="-18.8512" x2="269.477" y2="199.245" gradientUnits="userSpaceOnUse">
<stop stop-color="#D40202"/>
<stop offset="1" stop-color="#000080"/>
</linearGradient>
<linearGradient id="paint7_linear_1066_3" x1="33.5379" y1="-23.842" x2="274.003" y2="194.255" gradientUnits="userSpaceOnUse">
<stop stop-color="#D40202"/>
<stop offset="1" stop-color="#000080"/>
</linearGradient>
<linearGradient id="paint8_linear_1066_3" x1="-2.73308" y1="16.1491" x2="237.732" y2="234.246" gradientUnits="userSpaceOnUse">
<stop stop-color="#D40202"/>
<stop offset="1" stop-color="#000080"/>
</linearGradient>
<linearGradient id="paint9_linear_1066_3" x1="1.75582" y1="11.1998" x2="242.221" y2="229.296" gradientUnits="userSpaceOnUse">
<stop stop-color="#D40202"/>
<stop offset="1" stop-color="#000080"/>
</linearGradient>
<linearGradient id="paint10_linear_1066_3" x1="17.0442" y1="-5.65655" x2="257.51" y2="212.44" gradientUnits="userSpaceOnUse">
<stop stop-color="#D40202"/>
<stop offset="1" stop-color="#000080"/>
</linearGradient>
<linearGradient id="paint11_linear_1066_3" x1="21.6321" y1="-10.715" x2="262.098" y2="207.382" gradientUnits="userSpaceOnUse">
<stop stop-color="#D40202"/>
<stop offset="1" stop-color="#000080"/>
</linearGradient>
<linearGradient id="paint12_linear_1066_3" x1="9.17121" y1="3.02387" x2="249.637" y2="221.12" gradientUnits="userSpaceOnUse">
<stop stop-color="#D40202"/>
<stop offset="1" stop-color="#000080"/>
</linearGradient>
<linearGradient id="paint13_linear_1066_3" x1="13.6701" y1="-1.93648" x2="254.136" y2="216.16" gradientUnits="userSpaceOnUse">
<stop stop-color="#D40202"/>
<stop offset="1" stop-color="#000080"/>
</linearGradient>
<linearGradient id="paint14_linear_1066_3" x1="-22.7069" y1="38.1714" x2="217.759" y2="256.268" gradientUnits="userSpaceOnUse">
<stop stop-color="#D40202"/>
<stop offset="1" stop-color="#000080"/>
</linearGradient>
<linearGradient id="paint15_linear_1066_3" x1="-18.1682" y1="33.1672" x2="222.298" y2="251.264" gradientUnits="userSpaceOnUse">
<stop stop-color="#D40202"/>
<stop offset="1" stop-color="#000080"/>
</linearGradient>
</defs>
</svg>
