<svg width="211" height="218" viewBox="0 0 211 218" fill="none" xmlns="http://www.w3.org/2000/svg">
<path d="M41.27 115.62C40.08 113.48 39.35 112.12 38.58 110.78C28.88 93.99 19.26 77.16 9.39996 60.46C7.33996 56.97 7.86996 55.23 11.34 53.32C21.09 47.93 30.64 42.17 40.36 36.73C42.57 35.49 43.34 34.09 43.3 31.6C43.16 22.62 43.34 13.64 43.19 4.66003C43.13 1.36003 44.13 0.0200328 47.63 0.0300328C88.93 0.100033 130.23 0.120033 171.52 3.27651e-05C175.86 -0.00996723 176.07 2.27003 176.06 5.50003C176.02 40.26 176.04 75.03 176.04 109.79C176.04 111.51 176.04 113.23 176.04 115.62C181.25 115.62 186.12 115.62 190.99 115.62C195.63 115.62 200.28 115.85 204.9 115.55C209.05 115.28 210.1 117.06 210.08 120.9C209.96 144.8 210.02 168.7 210.02 192.6C210.02 198.97 210.03 205.35 210.02 211.72C210.01 217.5 209.91 217.6 204.21 217.6C151.91 217.6 99.6 217.6 47.3 217.6C33.25 217.6 19.19 217.5 5.13996 217.67C1.39996 217.71 0.00995738 216.54 0.0199574 212.72C0.119957 182.01 0.119957 151.3 0.0199574 120.6C0.00995738 116.85 1.24996 115.5 5.06996 115.56C16.77 115.74 28.5 115.62 41.27 115.62ZM170.81 115.62C170.81 78.6 170.81 42.05 170.81 5.24003C129.98 5.24003 89.38 5.24003 48.53 5.24003C48.53 42.06 48.53 78.6 48.53 115.42C50.21 115.49 51.62 115.61 53.04 115.61C60.86 115.63 68.69 115.81 76.5 115.54C80.6 115.4 82.28 116.64 82.07 120.92C81.79 126.7 82 132.5 82 138.29C82 140.82 82 143.34 82 145.79C97.79 145.79 112.76 145.79 128.08 145.79C128.08 139.82 128.08 134.18 128.08 128.55C128.08 115.61 128.08 115.61 141.13 115.61C150.94 115.62 160.75 115.62 170.81 115.62ZM132.98 120.74C132.98 129.41 132.78 137.52 133.06 145.62C133.21 149.79 131.85 151.24 127.64 151.19C112.57 151.01 97.49 151.01 82.42 151.19C78.21 151.24 76.86 149.8 77 145.63C77.28 137.43 77.08 129.21 77.08 120.87C60.02 120.87 43.48 120.87 26.97 120.87C26.97 151.62 26.97 181.98 26.97 212.35C79.19 212.35 131.12 212.35 183.11 212.35C183.11 181.64 183.11 151.29 183.11 120.75C166.4 120.74 149.95 120.74 132.98 120.74ZM5.31996 212.35C10.81 212.35 16.06 212.35 21.37 212.35C21.37 181.65 21.37 151.31 21.37 120.82C15.86 120.82 10.59 120.82 5.31996 120.82C5.31996 151.51 5.31996 181.87 5.31996 212.35ZM204.66 212.43C204.66 181.72 204.66 151.28 204.66 120.74C199.17 120.74 194.01 120.74 188.77 120.74C188.77 151.47 188.77 181.94 188.77 212.43C194.24 212.43 199.4 212.43 204.66 212.43ZM42.91 108.33C42.91 85.13 42.91 63.28 42.91 40.92C32.9 46.72 23.36 52.23 13.72 57.82C23.44 74.64 32.88 90.98 42.91 108.33Z" fill="url(#paint0_linear_1066_38)"/>
<path d="M123.13 35.83C123.13 42.04 123.07 48.26 123.15 54.47C123.19 57.36 122.11 58.69 119.08 58.64C105.83 58.44 107.87 60.16 107.77 47.9C107.68 37.5 107.84 27.09 107.7 16.69C107.65 13.2 108.81 11.7 112.44 11.75C124.6 11.9 123.06 10.77 123.13 21.96C123.16 26.58 123.14 31.2 123.13 35.83ZM117.75 53.55C117.75 41.03 117.75 28.98 117.75 16.74C116.02 16.82 114.62 16.88 113.09 16.94C113.09 29.26 113.09 41.31 113.09 53.55C114.75 53.55 116.13 53.55 117.75 53.55Z" fill="url(#paint1_linear_1066_38)"/>
<path d="M164.1 38.42C164.1 43.77 164.02 49.12 164.13 54.47C164.19 57.39 163.08 58.68 160.07 58.64C146.97 58.44 148.86 60.21 148.75 47.86C148.68 39.33 148.83 30.8 148.69 22.27C148.63 18.8 149.76 17.33 153.45 17.42C165.63 17.72 163.98 15.93 164.1 28.01C164.13 31.48 164.1 34.95 164.1 38.42ZM154.04 22.67C154.04 32.93 154.04 43.12 154.04 53.43C155.74 53.43 157.23 53.43 158.78 53.43C158.78 43.03 158.78 32.95 158.78 22.67C157.13 22.67 155.73 22.67 154.04 22.67Z" fill="url(#paint2_linear_1066_38)"/>
<path d="M68.8599 52.64C68.7499 54.06 68.9599 55.23 68.5099 56.02C68.0299 56.86 66.9699 57.72 66.0699 57.83C65.4699 57.91 64.0899 56.67 64.1199 56.07C64.2699 53.22 62.1899 52.48 60.4899 50.94C58.6199 49.25 57.4599 46.53 56.6399 44.05C56.3199 43.09 57.7999 41.55 58.4599 40.27C59.4699 41.22 60.5499 42.11 61.4699 43.15C62.7699 44.62 63.8499 47.34 65.2199 47.46C67.0999 47.64 70.0799 46.36 70.8599 44.83C71.4899 43.59 70.0199 40.56 68.6299 39.22C66.9399 37.61 64.3099 37.02 62.1499 35.87C54.9999 32.04 54.6899 24.13 61.3199 19.38C62.6999 18.39 63.3899 16.45 64.4999 15.03C65.2299 14.1 66.1599 13.33 67.0099 12.48C67.8099 13.35 68.6799 14.16 69.3799 15.1C70.3699 16.43 71.2499 17.84 72.1499 19.23C73.6599 21.57 75.4799 23.8 76.4599 26.35C76.8399 27.33 75.2899 29.06 74.6199 30.45C73.6999 29.42 72.7499 28.4 71.8599 27.34C70.6299 25.89 69.6999 23.71 68.1599 23.14C66.8299 22.65 64.4299 23.53 63.2099 24.61C60.6299 26.87 61.1399 29.56 64.1299 31.3C65.3699 32.02 66.7599 32.49 68.0699 33.1C72.4099 35.14 76.2099 37.65 76.4799 43.1C76.7199 48.41 73.0999 50.72 68.8599 52.64Z" fill="url(#paint3_linear_1066_38)"/>
<path d="M128.39 41C128.39 36.67 128.48 32.33 128.36 28.01C128.28 25.22 129.48 24.1 132.21 24.11C145.8 24.19 143.28 22.87 143.47 34.42C143.58 41.06 143.38 47.71 143.53 54.34C143.6 57.52 142.41 58.71 139.22 58.65C126.4 58.42 128.59 60.06 128.39 48.36C128.35 45.91 128.39 43.45 128.39 41ZM133.52 53.51C135.65 53.35 138.46 55.29 138.57 51.47C138.77 44.13 138.63 36.78 138.63 29.28C136.66 29.28 135.17 29.28 133.53 29.28C133.52 37.45 133.52 45.34 133.52 53.51Z" fill="url(#paint4_linear_1066_38)"/>
<path d="M125.91 71.9801C136.63 71.9801 147.36 71.9801 158.08 71.9801C159.24 71.9801 160.54 71.7201 161.51 72.1601C162.5 72.6001 163.16 73.7601 163.97 74.6101C163.19 75.3301 162.52 76.3001 161.6 76.6901C160.73 77.0601 159.6 76.8301 158.59 76.8301C136.71 76.8301 114.83 76.8301 92.94 76.8301C91.78 76.8301 90.49 77.0601 89.51 76.6301C88.67 76.2501 87.8 75.1301 87.67 74.2301C87.58 73.6301 88.66 72.4801 89.42 72.2401C90.62 71.8601 91.99 71.9801 93.29 71.9801C104.17 71.9701 115.04 71.9801 125.91 71.9801Z" fill="url(#paint5_linear_1066_38)"/>
<path d="M125.92 96.52C137.08 96.52 148.24 96.5 159.4 96.53C161.35 96.54 164.05 96.08 163.75 99.08C163.66 99.99 160.96 101.29 159.45 101.3C136.99 101.44 114.52 101.41 92.0599 101.37C90.1499 101.37 87.3799 101.82 87.7599 98.76C87.8699 97.85 90.5099 96.64 92.0099 96.62C103.31 96.44 114.61 96.52 125.92 96.52Z" fill="url(#paint6_linear_1066_38)"/>
<path d="M102.51 45.72C102.51 46.59 102.51 47.45 102.51 48.32C102.51 59.48 101.83 60.13 90.46 58.47C89.31 58.3 87.6 56.44 87.55 55.3C87.27 48.82 86.75 42.24 87.6 35.86C88.45 29.5 94.13 33.53 97.54 32.69C99.95 32.1 102.61 32.48 102.51 36.21C102.44 39.37 102.51 42.55 102.51 45.72ZM92.23 37.8C92.23 41.83 92.43 45.68 92.18 49.5C91.9 53.7 93.64 54.52 97.23 53.25C97.23 48.01 97.23 42.93 97.23 37.8C95.5 37.8 94.12 37.8 92.23 37.8Z" fill="url(#paint7_linear_1066_38)"/>
<path d="M55.2299 74.07C55.2799 65.31 54.1699 65.6 63.6399 65.6C73.7099 65.6 72.7499 65.12 72.7599 74.77C72.7599 83.22 72.7599 83.22 64.2599 83.22C53.8899 83.2 55.3399 83.81 55.2299 74.07ZM67.4899 70.93C64.7799 70.93 62.5699 70.93 60.3599 70.93C60.3599 73.48 60.3599 75.69 60.3599 78.03C62.8799 78.03 65.0899 78.03 67.4899 78.03C67.4899 75.54 67.4899 73.31 67.4899 70.93Z" fill="url(#paint8_linear_1066_38)"/>
<path d="M55.23 98.9601C55.3 89.5501 54.11 90.2101 64.16 90.1801C73.68 90.1501 72.74 89.8401 72.75 98.9501C72.76 107.76 72.75 107.74 63.73 107.77C54.1 107.8 55.29 108.1 55.23 98.9601ZM67.37 102.54C67.37 100.01 67.37 97.6801 67.37 95.3901C64.85 95.3901 62.65 95.3901 60.32 95.3901C60.32 97.9301 60.32 100.15 60.32 102.54C62.81 102.54 65.03 102.54 67.37 102.54Z" fill="url(#paint9_linear_1066_38)"/>
<path d="M104.58 196.47C94.5899 196.47 84.5999 196.34 74.6099 196.53C70.6299 196.61 69.1999 195.18 69.3499 191.2C69.5999 184.7 69.5099 178.17 69.3799 171.66C69.3099 168.46 70.6699 167.26 73.7699 167.26C94.6199 167.31 115.47 167.31 136.32 167.26C139.44 167.25 140.75 168.51 140.68 171.69C140.55 178.35 140.5 185.01 140.69 191.66C140.79 195.26 139.38 196.55 135.85 196.5C125.44 196.38 115.01 196.46 104.58 196.47ZM135.44 172.61C114.92 172.61 94.8599 172.61 74.6999 172.61C74.6999 178.92 74.6999 184.94 74.6999 191.06C95.0799 191.06 115.24 191.06 135.44 191.06C135.44 184.78 135.44 178.86 135.44 172.61Z" fill="url(#paint10_linear_1066_38)"/>
<defs>
<linearGradient id="paint0_linear_1066_38" x1="-4.29594" y1="5.06703" x2="199.82" y2="234.348" gradientUnits="userSpaceOnUse">
<stop stop-color="#D40202"/>
<stop offset="1" stop-color="#000080"/>
</linearGradient>
<linearGradient id="paint1_linear_1066_38" x1="47.4939" y1="-41.0386" x2="251.61" y2="188.242" gradientUnits="userSpaceOnUse">
<stop stop-color="#D40202"/>
<stop offset="1" stop-color="#000080"/>
</linearGradient>
<linearGradient id="paint2_linear_1066_38" x1="68.9807" y1="-60.167" x2="273.097" y2="169.114" gradientUnits="userSpaceOnUse">
<stop stop-color="#D40202"/>
<stop offset="1" stop-color="#000080"/>
</linearGradient>
<linearGradient id="paint3_linear_1066_38" x1="20.1078" y1="-16.6583" x2="224.224" y2="212.623" gradientUnits="userSpaceOnUse">
<stop stop-color="#D40202"/>
<stop offset="1" stop-color="#000080"/>
</linearGradient>
<linearGradient id="paint4_linear_1066_38" x1="55.9165" y1="-48.5368" x2="260.033" y2="180.744" gradientUnits="userSpaceOnUse">
<stop stop-color="#D40202"/>
<stop offset="1" stop-color="#000080"/>
</linearGradient>
<linearGradient id="paint5_linear_1066_38" x1="33.6982" y1="-28.7569" x2="237.814" y2="200.524" gradientUnits="userSpaceOnUse">
<stop stop-color="#D40202"/>
<stop offset="1" stop-color="#000080"/>
</linearGradient>
<linearGradient id="paint6_linear_1066_38" x1="21.6165" y1="-18.0015" x2="225.733" y2="211.28" gradientUnits="userSpaceOnUse">
<stop stop-color="#D40202"/>
<stop offset="1" stop-color="#000080"/>
</linearGradient>
<linearGradient id="paint7_linear_1066_38" x1="31.1981" y1="-26.5313" x2="235.314" y2="202.75" gradientUnits="userSpaceOnUse">
<stop stop-color="#D40202"/>
<stop offset="1" stop-color="#000080"/>
</linearGradient>
<linearGradient id="paint8_linear_1066_38" x1="-0.679079" y1="1.8471" x2="203.437" y2="231.128" gradientUnits="userSpaceOnUse">
<stop stop-color="#D40202"/>
<stop offset="1" stop-color="#000080"/>
</linearGradient>
<linearGradient id="paint9_linear_1066_38" x1="-12.8555" y1="12.6873" x2="191.261" y2="241.968" gradientUnits="userSpaceOnUse">
<stop stop-color="#D40202"/>
<stop offset="1" stop-color="#000080"/>
</linearGradient>
<linearGradient id="paint10_linear_1066_38" x1="-31.0758" y1="28.9076" x2="173.04" y2="258.189" gradientUnits="userSpaceOnUse">
<stop stop-color="#D40202"/>
<stop offset="1" stop-color="#000080"/>
</linearGradient>
</defs>
</svg>
