<svg width="256" height="248" viewBox="0 0 256 248" fill="none" xmlns="http://www.w3.org/2000/svg">
<path d="M127.16 175.37C147.9 175.37 168.08 175.37 188.61 175.37C188.61 163.2 188.61 151.21 188.61 137.72C187.08 139.64 186.49 140.91 185.5 141.45C184.67 141.91 183.08 141.93 182.37 141.41C181.66 140.89 181.03 139.14 181.39 138.47C184.04 133.5 186.67 128.48 189.89 123.88C191.59 121.44 193.69 122.94 194.97 125.1C197 128.52 199.24 131.85 200.94 135.44C201.75 137.13 201.51 139.32 201.75 141.28C199.72 141.1 197.7 140.92 194.96 140.68C194.96 141.97 194.96 144.18 194.96 146.39C194.96 155.86 194.98 165.33 194.95 174.8C194.94 181.36 194.66 181.63 188.29 181.64C169.85 181.65 151.42 181.64 132.98 181.64C131.2 181.64 129.42 181.64 127.48 181.64C127.48 183.95 127.48 185.69 127.48 187.76C155.9 187.76 184.04 187.76 212.51 187.76C212.51 174.79 212.51 162.08 212.51 148.12C210.63 150.35 209.57 152.19 208 153.28C206.89 154.05 205.08 153.8 203.58 154.01C203.42 152.52 202.59 150.57 203.23 149.63C206.33 145.12 209.69 140.77 213.24 136.61C215.16 134.37 217.41 135.04 219.14 137.24C222.12 141.02 225.26 144.71 227.89 148.72C228.74 150.01 228.21 152.21 228.31 153.99C226.49 153.47 224.52 153.24 222.91 152.35C221.72 151.69 221.01 150.16 219.25 148C219.08 150.71 218.89 152.38 218.89 154.05C218.86 165.35 218.7 176.65 218.96 187.94C219.07 192.82 217.19 194.24 212.51 194.21C186.27 194.05 160.02 194.14 133.78 194.14C131.82 194.14 129.86 194.14 127.44 194.14C127.33 196.39 127.16 198.15 127.16 199.92C127.14 213.54 127.18 227.16 127.13 240.78C127.11 246.57 125.83 247.95 120.13 247.95C82.42 248 44.72 248 7.00998 247.96C1.17998 247.95 -2.44156e-05 246.69 -0.0100244 240.92C-0.0300244 213.18 -0.0300244 185.44 -0.0100244 157.7C-0.0100244 151.69 1.31998 150.25 7.24998 150.25C44.79 150.21 82.33 150.21 119.87 150.25C125.65 150.26 127.07 151.83 127.13 157.83C127.21 163.58 127.16 169.35 127.16 175.37ZM120.82 156.66C106.7 156.66 92.9 156.66 78.8 156.66C78.8 164.22 78.67 171.35 78.85 178.47C78.95 182.57 77.2 184.22 73.23 184.15C67.58 184.06 61.93 184.14 56.28 184.13C48.75 184.12 48.37 183.74 48.36 176.29C48.35 169.72 48.36 163.15 48.36 156.58C33.79 156.58 20.1 156.58 6.30998 156.58C6.30998 185.12 6.30998 213.3 6.30998 241.6C44.58 241.6 82.54 241.6 120.82 241.6C120.82 213.15 120.82 185.01 120.82 156.66ZM72.61 156.25C67.24 156.25 62.29 156.15 57.34 156.34C56.36 156.38 54.6 157.52 54.58 158.2C54.37 164.74 54.45 171.29 54.45 177.73C61.03 177.73 66.73 177.73 72.6 177.73C72.61 170.57 72.61 163.82 72.61 156.25Z" fill="url(#paint0_linear_1066_52)"/>
<path d="M248.81 48.56C248.81 62.79 248.81 77.9 248.81 93C248.81 99.31 248.83 105.63 248.81 111.94C248.79 118.63 248.58 118.82 241.68 118.82C208.28 118.82 174.89 118.82 141.49 118.82C134.69 118.82 134.61 118.73 134.61 111.72C134.61 90.46 134.61 69.19 134.61 48.26C132.46 47.55 130.54 46.92 128.63 46.29C129.89 44.39 130.73 41.92 132.46 40.68C150.84 27.55 169.4 14.68 187.78 1.57002C190.69 -0.509978 192.69 -0.539978 195.62 1.55002C214.01 14.66 232.53 27.58 251.01 40.56C251.42 40.85 251.96 41.05 252.21 41.44C253.21 42.98 254.13 44.58 255.08 46.16C253.34 46.82 251.6 47.49 248.81 48.56ZM242.77 112.64C242.77 89.44 242.8 66.7 242.68 43.95C242.67 42.74 241.61 41.14 240.56 40.39C224.46 28.94 208.27 17.61 191.97 6.15002C175.43 17.79 158.96 29.29 142.65 41.02C141.41 41.91 140.72 44.34 140.71 46.07C140.58 67.01 140.62 87.94 140.64 108.88C140.64 110.14 140.88 111.39 141 112.64C174.91 112.64 208.44 112.64 242.77 112.64Z" fill="url(#paint1_linear_1066_52)"/>
<path d="M80.8499 235.99C71.3899 235.99 61.9199 236.13 52.4699 235.86C50.8099 235.81 49.1999 234.06 47.5699 233.1C49.1599 232.06 50.7299 230.13 52.3299 230.11C71.2499 229.9 90.1799 229.9 109.1 230.1C110.74 230.12 112.37 231.96 114 232.96C112.41 233.97 110.85 235.8 109.23 235.84C99.7799 236.13 90.3099 235.99 80.8499 235.99Z" fill="url(#paint2_linear_1066_52)"/>
<path d="M96.02 226.51C91.72 226.51 87.4 226.77 83.14 226.37C81.64 226.23 80.29 224.44 78.88 223.4C80.33 222.44 81.76 220.69 83.24 220.64C92.16 220.38 101.09 220.4 110.01 220.64C111.35 220.68 112.65 222.35 113.96 223.27C112.61 224.35 111.33 226.23 109.89 226.36C105.3 226.76 100.65 226.51 96.02 226.51Z" fill="url(#paint3_linear_1066_52)"/>
<path d="M192.67 29.64C206.38 30.14 216.62 42.68 212.43 55.65C207.4 71.2 200.79 86.25 194.74 101.46C194.34 102.46 192.77 103.75 191.9 103.63C190.71 103.48 189.12 102.34 188.67 101.24C182.72 86.51 176.35 71.91 171.27 56.88C166.5 42.76 177.74 29.1 192.67 29.64ZM190.74 92.33C191.4 92.33 192.06 92.34 192.71 92.34C197.35 79.93 202.23 67.61 206.53 55.09C208.79 48.52 206.2 42.21 200.84 38.44C195.66 34.79 188.37 34.7 183.01 38.22C177.5 41.83 174.53 48.15 176.73 54.69C181.01 67.37 186.03 79.8 190.74 92.33Z" fill="url(#paint4_linear_1066_52)"/>
<path d="M203.86 53.63C203.78 60.22 198.22 65.55 191.59 65.4C184.84 65.24 179.42 59.85 179.5 53.36C179.58 46.88 185.12 41.59 191.86 41.58C198.48 41.57 203.94 47.05 203.86 53.63ZM197.83 53.46C197.51 49.94 195.61 47.69 191.85 47.71C188.25 47.73 185.69 49.61 185.61 53.37C185.53 57.12 187.97 59.13 191.59 59.27C195.32 59.41 197.4 57.35 197.83 53.46Z" fill="url(#paint5_linear_1066_52)"/>
<defs>
<linearGradient id="paint0_linear_1066_52" x1="-47.702" y1="39.5518" x2="187.171" y2="266.037" gradientUnits="userSpaceOnUse">
<stop stop-color="#D40202"/>
<stop offset="1" stop-color="#000080"/>
</linearGradient>
<linearGradient id="paint1_linear_1066_52" x1="48.654" y1="-60.3729" x2="283.527" y2="166.112" gradientUnits="userSpaceOnUse">
<stop stop-color="#D40202"/>
<stop offset="1" stop-color="#000080"/>
</linearGradient>
<linearGradient id="paint2_linear_1066_52" x1="-82.474" y1="75.6117" x2="152.399" y2="302.097" gradientUnits="userSpaceOnUse">
<stop stop-color="#D40202"/>
<stop offset="1" stop-color="#000080"/>
</linearGradient>
<linearGradient id="paint3_linear_1066_52" x1="-70.0913" y1="62.7704" x2="164.782" y2="289.255" gradientUnits="userSpaceOnUse">
<stop stop-color="#D40202"/>
<stop offset="1" stop-color="#000080"/>
</linearGradient>
<linearGradient id="paint4_linear_1066_52" x1="56.1206" y1="-68.116" x2="290.994" y2="158.369" gradientUnits="userSpaceOnUse">
<stop stop-color="#D40202"/>
<stop offset="1" stop-color="#000080"/>
</linearGradient>
<linearGradient id="paint5_linear_1066_52" x1="60.6964" y1="-72.8613" x2="295.57" y2="153.624" gradientUnits="userSpaceOnUse">
<stop stop-color="#D40202"/>
<stop offset="1" stop-color="#000080"/>
</linearGradient>
</defs>
</svg>
